<?xml version="1.0" standalone="no"?>
<!DOCTYPE svg PUBLIC "-//W3C//DTD SVG 20010904//EN"
 "http://www.w3.org/TR/2001/REC-SVG-20010904/DTD/svg10.dtd">
<svg version="1.0" xmlns="http://www.w3.org/2000/svg"
 width="256.000000pt" height="256.000000pt" viewBox="0 0 256.000000 256.000000"
 preserveAspectRatio="xMidYMid meet">
<metadata>
Created by potrace 1.11, written by Peter Selinger 2001-2013
</metadata>
<g transform="translate(0.000000,256.000000) scale(0.100000,-0.100000)"
fill="#000000" stroke="none">
<path d="M477 1938 c-131 -27 -204 -180 -147 -307 11 -24 20 -44 20 -45 0 0
-79 0 -175 1 l-175 3 0 -183 0 -182 102 -306 101 -305 116 0 116 1 9 27 c12
35 19 35 32 0 l11 -28 244 2 c134 1 249 2 255 3 5 0 18 23 28 50 14 39 22 48
41 48 19 0 27 -9 42 -51 l18 -51 288 0 c228 0 287 3 287 13 0 10 4 10 23 0 16
-9 94 -12 287 -12 298 1 310 3 372 72 20 22 41 56 48 77 15 46 8 150 -13 173
-29 35 -26 37 39 34 l64 -4 0 312 0 311 -62 -1 c-35 -1 -77 -1 -94 -1 l-31 1
12 48 c23 91 -4 183 -72 243 -68 59 -85 63 -338 63 l-230 1 -5 -74 -5 -74 -25
74 -25 74 -561 0 c-308 1 -577 -3 -597 -7z m741 -97 c8 -1 12 -18 12 -51 l0
-50 -103 0 -102 0 0 -157 c0 -219 8 -201 -81 -200 l-74 0 0 179 0 178 -149 0
c-140 0 -150 -1 -156 -20 -7 -22 -7 -23 57 -111 56 -77 62 -103 38 -156 -29
-66 -46 -70 -318 -69 l-237 1 -3 29 c-2 15 -1 38 2 50 5 21 9 22 193 21 103
-1 196 1 206 3 29 7 19 39 -38 125 -58 86 -63 108 -42 160 17 40 38 58 78 66
23 5 652 6 717 2z m342 -7 c7 -7 117 -319 150 -426 l8 -27 -62 1 -62 1 -20 51
-20 51 -97 0 -97 0 -17 -51 -16 -52 -63 1 c-35 0 -64 2 -64 3 0 1 30 93 66
205 37 112 69 214 71 226 3 12 12 23 21 25 34 7 194 0 202 -8z m648 -9 c42
-25 73 -88 66 -135 -10 -59 -32 -90 -83 -114 l-48 -22 33 -34 c33 -33 35 -34
126 -36 51 -1 96 -2 100 -3 3 0 6 -21 5 -46 -1 -31 -6 -46 -17 -49 -8 -2 -73
-4 -145 -4 l-129 0 -60 57 c-34 31 -71 66 -83 79 -26 26 -25 27 -27 -68 l-1
-65 -75 0 -75 0 -2 227 c-2 202 0 227 14 230 9 2 96 3 193 2 154 0 179 -3 208
-19z m-1438 -217 c0 -17 -1 -29 -3 -27 -2 2 -11 16 -20 32 -17 26 -17 27 3 27
16 0 20 -7 20 -32z m396 10 c-4 -13 -8 -28 -10 -35 -1 -7 -5 -16 -9 -19 -4 -4
-7 -15 -7 -25 0 -10 -3 -20 -7 -22 -7 -4 -8 22 -4 106 1 10 9 17 22 17 17 0
20 -4 15 -22z m-396 -268 l0 -70 -87 1 -88 0 40 15 c43 16 88 54 113 97 9 15
18 27 19 27 2 0 3 -31 3 -70z m732 -20 l16 -50 -60 0 c-44 0 -59 3 -55 13 2 6
10 29 18 50 10 30 18 37 39 37 23 0 28 -7 42 -50z m607 -50 c10 -5 4 -10 -19
-15 -20 -4 -52 -26 -82 -56 l-49 -49 -31 36 c-31 35 -71 60 -118 75 -15 4 30
8 108 8 86 1 132 5 132 12 0 10 30 5 59 -11z m-780 -137 l0 -138 -39 114 c-59
173 -58 161 -5 161 l45 0 -1 -137z m-1079 33 c0 -1 15 -46 34 -100 28 -83 35
-95 41 -75 4 13 21 58 37 101 l29 76 71 -1 72 -2 30 -92 c17 -51 33 -93 36
-93 3 0 19 42 35 93 l30 92 63 3 c44 1 62 -2 62 -10 0 -11 -139 -438 -145
-446 -7 -8 -67 -7 -79 2 -8 6 -35 70 -59 141 -51 149 -40 153 -105 -35 -19
-58 -39 -108 -44 -111 -8 -5 -78 -3 -83 3 -6 7 -145 434 -145 445 0 8 20 12
60 11 33 0 60 -1 60 -2z m907 -5 c9 -6 153 -425 153 -446 0 -12 -108 -11 -121
2 -5 5 -15 26 -22 48 l-14 40 -98 0 -98 0 -19 -50 -19 -50 -54 1 c-30 0 -57 3
-60 6 -3 3 -1 16 4 29 6 13 38 112 72 219 34 107 63 198 65 201 4 8 199 8 211
0z m700 -14 c62 -42 83 -120 49 -186 -18 -34 -69 -71 -98 -71 -25 0 -22 -9 14
-47 l32 -33 152 0 c197 0 206 10 109 115 -67 73 -80 100 -66 145 25 83 64 100
231 97 l125 -2 1 -35 c3 -65 2 -66 -89 -65 -129 3 -136 -15 -47 -130 63 -82
69 -103 46 -158 -27 -66 -42 -69 -295 -69 -124 0 -235 0 -246 1 -12 1 -57 34
-100 75 -44 41 -82 72 -84 70 -2 -2 -3 -36 -3 -76 l1 -73 -67 2 c-37 0 -72 2
-78 2 -8 1 -11 70 -10 230 l0 228 196 1 c184 1 197 0 227 -21z"/>
<path d="M1450 1757 c0 -2 -13 -41 -29 -85 -33 -91 -37 -83 42 -84 21 0 40 2
43 5 6 6 -44 167 -52 167 -2 0 -4 -2 -4 -3z"/>
<path d="M1947 1733 c-6 -11 -1 -82 6 -89 5 -5 60 -7 119 -5 22 1 48 28 48 51
0 36 -27 50 -100 50 -38 0 -71 -3 -73 -7z"/>
<path d="M1027 1022 c-15 -42 -27 -83 -27 -89 0 -9 18 -13 55 -13 33 0 55 4
55 11 0 10 -49 161 -54 166 -1 2 -15 -32 -29 -75z"/>
<path d="M1590 1024 l0 -53 63 0 c71 0 107 18 107 53 0 36 -24 49 -100 51
l-70 2 0 -53z"/>
</g>
</svg>
